<mxfile host="Electron" modified="2023-06-04T19:13:36.652Z" agent="Mozilla/5.0 (X11; Linux x86_64) AppleWebKit/537.36 (KHTML, like Gecko) draw.io/21.2.8 Chrome/106.0.5249.199 Electron/21.4.4 Safari/537.36" etag="7zZFEyMG2s1MyKmdeZ20" version="21.2.8" type="device">
  <diagram id="C5RBs43oDa-KdzZeNtuy" name="Conceptual Flow">
    <mxGraphModel dx="1414" dy="863" grid="0" gridSize="10" guides="1" tooltips="1" connect="1" arrows="1" fold="1" page="0" pageScale="1" pageWidth="827" pageHeight="1169" math="0" shadow="0">
      <root>
        <mxCell id="WIyWlLk6GJQsqaUBKTNV-0" />
        <mxCell id="WIyWlLk6GJQsqaUBKTNV-1" parent="WIyWlLk6GJQsqaUBKTNV-0" />
        <mxCell id="O4M60aIpEdmVqwwRWebh-5" value="High level modules" style="swimlane;childLayout=stackLayout;resizeParent=1;resizeParentMax=0;startSize=20;horizontal=0;horizontalStack=1;" parent="WIyWlLk6GJQsqaUBKTNV-1" vertex="1">
          <mxGeometry x="20" y="90" width="1162" height="459" as="geometry" />
        </mxCell>
        <mxCell id="O4M60aIpEdmVqwwRWebh-6" value="Input" style="swimlane;startSize=20;" parent="O4M60aIpEdmVqwwRWebh-5" vertex="1">
          <mxGeometry x="20" width="340" height="459" as="geometry" />
        </mxCell>
        <mxCell id="o_tftDMW4ovTJ3_MUuLd-4" value="" style="rounded=0;whiteSpace=wrap;html=1;fillColor=#7AE697;strokeColor=none;gradientColor=none;fillOpacity=75;" vertex="1" parent="O4M60aIpEdmVqwwRWebh-6">
          <mxGeometry x="9" y="139.5" width="138" height="189" as="geometry" />
        </mxCell>
        <mxCell id="O4M60aIpEdmVqwwRWebh-24" style="edgeStyle=orthogonalEdgeStyle;rounded=0;orthogonalLoop=1;jettySize=auto;html=1;exitX=1;exitY=0.5;exitDx=0;exitDy=0;entryX=0;entryY=0.5;entryDx=0;entryDy=0;fillColor=#1ba1e2;strokeColor=#56C7F0;strokeWidth=2;" parent="O4M60aIpEdmVqwwRWebh-6" source="o_tftDMW4ovTJ3_MUuLd-4" target="O4M60aIpEdmVqwwRWebh-14" edge="1">
          <mxGeometry relative="1" as="geometry" />
        </mxCell>
        <mxCell id="O4M60aIpEdmVqwwRWebh-11" value="Live mic input" style="rounded=1;whiteSpace=wrap;html=1;" parent="O4M60aIpEdmVqwwRWebh-6" vertex="1">
          <mxGeometry x="18" y="159" width="120" height="60" as="geometry" />
        </mxCell>
        <mxCell id="O4M60aIpEdmVqwwRWebh-12" value="Loaded sample input" style="rounded=1;whiteSpace=wrap;html=1;" parent="O4M60aIpEdmVqwwRWebh-6" vertex="1">
          <mxGeometry x="18" y="249" width="120" height="60" as="geometry" />
        </mxCell>
        <mxCell id="O4M60aIpEdmVqwwRWebh-14" value="&lt;h4&gt;Input Samples&lt;/h4&gt;" style="rounded=1;whiteSpace=wrap;html=1;" parent="O4M60aIpEdmVqwwRWebh-6" vertex="1">
          <mxGeometry x="187" y="204" width="120" height="60" as="geometry" />
        </mxCell>
        <mxCell id="o_tftDMW4ovTJ3_MUuLd-6" style="edgeStyle=orthogonalEdgeStyle;rounded=0;orthogonalLoop=1;jettySize=auto;html=1;exitX=0.5;exitY=0;exitDx=0;exitDy=0;entryX=0.5;entryY=1;entryDx=0;entryDy=0;fillColor=#b0e3e6;strokeColor=#7AE697;strokeWidth=2;" edge="1" parent="O4M60aIpEdmVqwwRWebh-6" source="o_tftDMW4ovTJ3_MUuLd-5" target="o_tftDMW4ovTJ3_MUuLd-4">
          <mxGeometry relative="1" as="geometry" />
        </mxCell>
        <mxCell id="o_tftDMW4ovTJ3_MUuLd-5" value="Extra Settings" style="rounded=1;whiteSpace=wrap;html=1;fillColor=#7AE697;strokeColor=none;fontColor=#1A1A1A;" vertex="1" parent="O4M60aIpEdmVqwwRWebh-6">
          <mxGeometry x="18" y="361" width="120" height="60" as="geometry" />
        </mxCell>
        <mxCell id="o_tftDMW4ovTJ3_MUuLd-11" value="MIDI Note Choosing" style="rounded=1;whiteSpace=wrap;html=1;fillColor=#FA837A;strokeColor=none;fontColor=#1A1A1A;" vertex="1" parent="O4M60aIpEdmVqwwRWebh-6">
          <mxGeometry x="18" y="39" width="120" height="60" as="geometry" />
        </mxCell>
        <mxCell id="O4M60aIpEdmVqwwRWebh-17" style="edgeStyle=orthogonalEdgeStyle;rounded=0;orthogonalLoop=1;jettySize=auto;html=1;exitX=0;exitY=0.25;exitDx=0;exitDy=0;entryX=1;entryY=0.5;entryDx=0;entryDy=0;startArrow=classic;startFill=1;strokeColor=#FA837A;strokeWidth=2;" parent="O4M60aIpEdmVqwwRWebh-5" source="O4M60aIpEdmVqwwRWebh-1" target="o_tftDMW4ovTJ3_MUuLd-11" edge="1">
          <mxGeometry relative="1" as="geometry" />
        </mxCell>
        <mxCell id="O4M60aIpEdmVqwwRWebh-27" style="edgeStyle=orthogonalEdgeStyle;rounded=0;orthogonalLoop=1;jettySize=auto;html=1;exitX=1;exitY=0.5;exitDx=0;exitDy=0;entryX=0;entryY=0.5;entryDx=0;entryDy=0;fillColor=#1ba1e2;strokeColor=#56C7F0;strokeWidth=2;" parent="O4M60aIpEdmVqwwRWebh-5" source="O4M60aIpEdmVqwwRWebh-14" target="O4M60aIpEdmVqwwRWebh-18" edge="1">
          <mxGeometry relative="1" as="geometry" />
        </mxCell>
        <mxCell id="O4M60aIpEdmVqwwRWebh-7" value="Pitch Detection or Translation" style="swimlane;startSize=20;" parent="O4M60aIpEdmVqwwRWebh-5" vertex="1">
          <mxGeometry x="360" width="303" height="459" as="geometry" />
        </mxCell>
        <mxCell id="o_tftDMW4ovTJ3_MUuLd-9" style="edgeStyle=orthogonalEdgeStyle;rounded=0;orthogonalLoop=1;jettySize=auto;html=1;exitX=0.5;exitY=0;exitDx=0;exitDy=0;entryX=0.5;entryY=1;entryDx=0;entryDy=0;strokeColor=#7AE697;strokeWidth=2;" edge="1" parent="O4M60aIpEdmVqwwRWebh-7" source="o_tftDMW4ovTJ3_MUuLd-2" target="O4M60aIpEdmVqwwRWebh-18">
          <mxGeometry relative="1" as="geometry">
            <mxPoint x="157" y="286" as="targetPoint" />
          </mxGeometry>
        </mxCell>
        <mxCell id="o_tftDMW4ovTJ3_MUuLd-2" value="" style="rounded=0;whiteSpace=wrap;html=1;fillColor=#7AE697;strokeColor=none;gradientColor=none;fillOpacity=75;" vertex="1" parent="O4M60aIpEdmVqwwRWebh-7">
          <mxGeometry x="58.5" y="338.5" width="193" height="105" as="geometry" />
        </mxCell>
        <mxCell id="O4M60aIpEdmVqwwRWebh-1" value="Note Translation LIbrary" style="swimlane;childLayout=stackLayout;horizontal=1;startSize=50;horizontalStack=0;rounded=1;fontSize=14;fontStyle=0;strokeWidth=2;resizeParent=0;resizeLast=1;shadow=0;dashed=0;align=center;arcSize=4;whiteSpace=wrap;html=1;" parent="O4M60aIpEdmVqwwRWebh-7" vertex="1">
          <mxGeometry x="50" y="33" width="210" height="142" as="geometry" />
        </mxCell>
        <mxCell id="O4M60aIpEdmVqwwRWebh-2" value="- Approximating notes&lt;br&gt;- Scale/mode abstraction&lt;br&gt;- Random chord choosing&lt;br&gt;- How many steps to shift by &lt;br&gt;based on detected and requested" style="align=left;strokeColor=none;fillColor=none;spacingLeft=4;fontSize=12;verticalAlign=top;resizable=0;rotatable=0;part=1;html=1;" parent="O4M60aIpEdmVqwwRWebh-1" vertex="1">
          <mxGeometry y="50" width="210" height="92" as="geometry" />
        </mxCell>
        <mxCell id="O4M60aIpEdmVqwwRWebh-37" style="edgeStyle=orthogonalEdgeStyle;rounded=0;orthogonalLoop=1;jettySize=auto;html=1;exitX=0.5;exitY=0;exitDx=0;exitDy=0;entryX=0.5;entryY=1;entryDx=0;entryDy=0;strokeColor=#FA837A;strokeWidth=2;" parent="O4M60aIpEdmVqwwRWebh-7" source="O4M60aIpEdmVqwwRWebh-18" target="O4M60aIpEdmVqwwRWebh-2" edge="1">
          <mxGeometry relative="1" as="geometry" />
        </mxCell>
        <mxCell id="O4M60aIpEdmVqwwRWebh-18" value="&lt;h4&gt;Pitch Detection Engine&lt;/h4&gt;" style="rounded=1;whiteSpace=wrap;html=1;" parent="O4M60aIpEdmVqwwRWebh-7" vertex="1">
          <mxGeometry x="95" y="204" width="120" height="60" as="geometry" />
        </mxCell>
        <mxCell id="O4M60aIpEdmVqwwRWebh-19" value="Alg 1" style="rounded=1;whiteSpace=wrap;html=1;" parent="O4M60aIpEdmVqwwRWebh-7" vertex="1">
          <mxGeometry x="83" y="361" width="64" height="60" as="geometry" />
        </mxCell>
        <mxCell id="O4M60aIpEdmVqwwRWebh-20" value="Alg 2" style="rounded=1;whiteSpace=wrap;html=1;" parent="O4M60aIpEdmVqwwRWebh-7" vertex="1">
          <mxGeometry x="163" y="361" width="64" height="60" as="geometry" />
        </mxCell>
        <mxCell id="O4M60aIpEdmVqwwRWebh-8" value="Shifting" style="swimlane;startSize=20;" parent="O4M60aIpEdmVqwwRWebh-5" vertex="1">
          <mxGeometry x="663" width="319" height="459" as="geometry">
            <mxRectangle x="350" width="40" height="600" as="alternateBounds" />
          </mxGeometry>
        </mxCell>
        <mxCell id="o_tftDMW4ovTJ3_MUuLd-10" style="edgeStyle=orthogonalEdgeStyle;rounded=0;orthogonalLoop=1;jettySize=auto;html=1;exitX=0.5;exitY=0;exitDx=0;exitDy=0;entryX=0.5;entryY=1;entryDx=0;entryDy=0;strokeColor=#7AE697;strokeWidth=2;" edge="1" parent="O4M60aIpEdmVqwwRWebh-8" source="o_tftDMW4ovTJ3_MUuLd-3" target="O4M60aIpEdmVqwwRWebh-29">
          <mxGeometry relative="1" as="geometry" />
        </mxCell>
        <mxCell id="o_tftDMW4ovTJ3_MUuLd-3" value="" style="rounded=0;whiteSpace=wrap;html=1;fillColor=#7AE697;strokeColor=none;gradientColor=none;fillOpacity=75;" vertex="1" parent="O4M60aIpEdmVqwwRWebh-8">
          <mxGeometry x="43.5" y="338.5" width="253" height="105" as="geometry" />
        </mxCell>
        <mxCell id="O4M60aIpEdmVqwwRWebh-29" value="&lt;h4&gt;Pitch Shifting Engine&lt;/h4&gt;&lt;div&gt;Split into buffers for each voice; multithreading could happen here&lt;/div&gt;" style="rounded=1;whiteSpace=wrap;html=1;" parent="O4M60aIpEdmVqwwRWebh-8" vertex="1">
          <mxGeometry x="75" y="189.25" width="190" height="89.5" as="geometry" />
        </mxCell>
        <mxCell id="O4M60aIpEdmVqwwRWebh-30" value="Lent/Granular Algorithm" style="rounded=1;whiteSpace=wrap;html=1;" parent="O4M60aIpEdmVqwwRWebh-8" vertex="1">
          <mxGeometry x="64.5" y="361" width="95" height="60" as="geometry" />
        </mxCell>
        <mxCell id="O4M60aIpEdmVqwwRWebh-32" value="PSOLA or something" style="rounded=1;whiteSpace=wrap;html=1;" parent="O4M60aIpEdmVqwwRWebh-8" vertex="1">
          <mxGeometry x="180.5" y="361" width="95" height="60" as="geometry" />
        </mxCell>
        <mxCell id="O4M60aIpEdmVqwwRWebh-9" value="Output" style="swimlane;startSize=20;" parent="O4M60aIpEdmVqwwRWebh-5" vertex="1">
          <mxGeometry x="982" width="180" height="459" as="geometry">
            <mxRectangle x="350" width="40" height="600" as="alternateBounds" />
          </mxGeometry>
        </mxCell>
        <mxCell id="o_tftDMW4ovTJ3_MUuLd-12" value="&lt;h4&gt;Combined voices added to final output buffer&lt;/h4&gt;" style="rounded=1;whiteSpace=wrap;html=1;" vertex="1" parent="O4M60aIpEdmVqwwRWebh-9">
          <mxGeometry x="15" y="182.25" width="149" height="103.5" as="geometry" />
        </mxCell>
        <mxCell id="o_tftDMW4ovTJ3_MUuLd-16" style="edgeStyle=orthogonalEdgeStyle;rounded=0;orthogonalLoop=1;jettySize=auto;html=1;exitX=0.5;exitY=0;exitDx=0;exitDy=0;entryX=0.5;entryY=1;entryDx=0;entryDy=0;strokeColor=#7AE697;strokeWidth=2;" edge="1" parent="O4M60aIpEdmVqwwRWebh-9" source="o_tftDMW4ovTJ3_MUuLd-13" target="o_tftDMW4ovTJ3_MUuLd-12">
          <mxGeometry relative="1" as="geometry" />
        </mxCell>
        <mxCell id="o_tftDMW4ovTJ3_MUuLd-13" value="" style="rounded=0;whiteSpace=wrap;html=1;fillColor=#7AE697;strokeColor=none;gradientColor=none;fillOpacity=75;" vertex="1" parent="O4M60aIpEdmVqwwRWebh-9">
          <mxGeometry x="24" y="338.5" width="131" height="105" as="geometry" />
        </mxCell>
        <mxCell id="o_tftDMW4ovTJ3_MUuLd-14" value="Volume/Panning voices" style="rounded=1;whiteSpace=wrap;html=1;" vertex="1" parent="O4M60aIpEdmVqwwRWebh-9">
          <mxGeometry x="40" y="364" width="95" height="60" as="geometry" />
        </mxCell>
        <mxCell id="o_tftDMW4ovTJ3_MUuLd-0" style="edgeStyle=orthogonalEdgeStyle;rounded=0;orthogonalLoop=1;jettySize=auto;html=1;exitX=1;exitY=0.5;exitDx=0;exitDy=0;entryX=0;entryY=0.5;entryDx=0;entryDy=0;fillColor=#1ba1e2;strokeColor=#56C7F0;strokeWidth=2;" edge="1" parent="O4M60aIpEdmVqwwRWebh-5" source="O4M60aIpEdmVqwwRWebh-18" target="O4M60aIpEdmVqwwRWebh-29">
          <mxGeometry relative="1" as="geometry" />
        </mxCell>
        <mxCell id="o_tftDMW4ovTJ3_MUuLd-1" style="edgeStyle=orthogonalEdgeStyle;rounded=0;orthogonalLoop=1;jettySize=auto;html=1;exitX=1;exitY=0.5;exitDx=0;exitDy=0;entryX=0.5;entryY=0;entryDx=0;entryDy=0;strokeColor=#FA837A;strokeWidth=2;" edge="1" parent="O4M60aIpEdmVqwwRWebh-5" source="O4M60aIpEdmVqwwRWebh-2" target="O4M60aIpEdmVqwwRWebh-29">
          <mxGeometry relative="1" as="geometry" />
        </mxCell>
        <mxCell id="o_tftDMW4ovTJ3_MUuLd-7" style="edgeStyle=orthogonalEdgeStyle;rounded=0;orthogonalLoop=1;jettySize=auto;html=1;exitX=1;exitY=0.5;exitDx=0;exitDy=0;entryX=0;entryY=0.5;entryDx=0;entryDy=0;fillColor=#b0e3e6;strokeColor=#7AE697;strokeWidth=2;" edge="1" parent="O4M60aIpEdmVqwwRWebh-5" source="o_tftDMW4ovTJ3_MUuLd-5" target="o_tftDMW4ovTJ3_MUuLd-2">
          <mxGeometry relative="1" as="geometry" />
        </mxCell>
        <mxCell id="o_tftDMW4ovTJ3_MUuLd-8" style="edgeStyle=orthogonalEdgeStyle;rounded=0;orthogonalLoop=1;jettySize=auto;html=1;exitX=1;exitY=0.5;exitDx=0;exitDy=0;entryX=0;entryY=0.5;entryDx=0;entryDy=0;fillColor=#b0e3e6;strokeColor=#7AE697;strokeWidth=2;" edge="1" parent="O4M60aIpEdmVqwwRWebh-5" source="o_tftDMW4ovTJ3_MUuLd-2" target="o_tftDMW4ovTJ3_MUuLd-3">
          <mxGeometry relative="1" as="geometry" />
        </mxCell>
        <mxCell id="o_tftDMW4ovTJ3_MUuLd-15" style="edgeStyle=orthogonalEdgeStyle;rounded=0;orthogonalLoop=1;jettySize=auto;html=1;exitX=1;exitY=0.5;exitDx=0;exitDy=0;entryX=0;entryY=0.5;entryDx=0;entryDy=0;strokeColor=#7AE697;strokeWidth=2;" edge="1" parent="O4M60aIpEdmVqwwRWebh-5" source="o_tftDMW4ovTJ3_MUuLd-3" target="o_tftDMW4ovTJ3_MUuLd-13">
          <mxGeometry relative="1" as="geometry" />
        </mxCell>
        <mxCell id="o_tftDMW4ovTJ3_MUuLd-18" style="edgeStyle=orthogonalEdgeStyle;rounded=0;orthogonalLoop=1;jettySize=auto;html=1;exitX=1;exitY=0.5;exitDx=0;exitDy=0;entryX=0;entryY=0.5;entryDx=0;entryDy=0;strokeWidth=2;strokeColor=#56C7F0;" edge="1" parent="O4M60aIpEdmVqwwRWebh-5" source="O4M60aIpEdmVqwwRWebh-29" target="o_tftDMW4ovTJ3_MUuLd-12">
          <mxGeometry relative="1" as="geometry" />
        </mxCell>
      </root>
    </mxGraphModel>
  </diagram>
</mxfile>
